%TF.GenerationSoftware,KiCad,Pcbnew,6.0.9+dfsg-1~bpo11+1*%
%TF.CreationDate,2022-12-18T16:32:11+00:00*%
%TF.ProjectId,USB-C-to-C Power Mod,5553422d-432d-4746-9f2d-4320506f7765,rev?*%
%TF.SameCoordinates,Original*%
%TF.FileFunction,Copper,L1,Top*%
%TF.FilePolarity,Positive*%
%FSLAX46Y46*%
G04 Gerber Fmt 4.6, Leading zero omitted, Abs format (unit mm)*
G04 Created by KiCad (PCBNEW 6.0.9+dfsg-1~bpo11+1) date 2022-12-18 16:32:11*
%MOMM*%
%LPD*%
G01*
G04 APERTURE LIST*
G04 Aperture macros list*
%AMRoundRect*
0 Rectangle with rounded corners*
0 $1 Rounding radius*
0 $2 $3 $4 $5 $6 $7 $8 $9 X,Y pos of 4 corners*
0 Add a 4 corners polygon primitive as box body*
4,1,4,$2,$3,$4,$5,$6,$7,$8,$9,$2,$3,0*
0 Add four circle primitives for the rounded corners*
1,1,$1+$1,$2,$3*
1,1,$1+$1,$4,$5*
1,1,$1+$1,$6,$7*
1,1,$1+$1,$8,$9*
0 Add four rect primitives between the rounded corners*
20,1,$1+$1,$2,$3,$4,$5,0*
20,1,$1+$1,$4,$5,$6,$7,0*
20,1,$1+$1,$6,$7,$8,$9,0*
20,1,$1+$1,$8,$9,$2,$3,0*%
G04 Aperture macros list end*
%TA.AperFunction,ComponentPad*%
%ADD10O,0.300000X0.700000*%
%TD*%
%TA.AperFunction,ComponentPad*%
%ADD11O,0.600000X1.000000*%
%TD*%
%TA.AperFunction,SMDPad,CuDef*%
%ADD12RoundRect,0.237500X-0.250000X-0.237500X0.250000X-0.237500X0.250000X0.237500X-0.250000X0.237500X0*%
%TD*%
%TA.AperFunction,SMDPad,CuDef*%
%ADD13RoundRect,0.237500X0.250000X0.237500X-0.250000X0.237500X-0.250000X-0.237500X0.250000X-0.237500X0*%
%TD*%
%TA.AperFunction,Conductor*%
%ADD14C,0.300000*%
%TD*%
%TA.AperFunction,Conductor*%
%ADD15C,0.250000*%
%TD*%
G04 APERTURE END LIST*
D10*
%TO.P,J1,1,Pin_1*%
%TO.N,N/C*%
X143154400Y-92330400D03*
%TD*%
D11*
%TO.P,REF\u002A\u002A,1*%
%TO.N,N/C*%
X141706600Y-92275000D03*
%TD*%
D12*
%TO.P,R1,2*%
%TO.N,GND*%
X147896500Y-94029300D03*
%TO.P,R1,1*%
%TO.N,Net-(J1-Pad1)*%
X146071500Y-94029300D03*
%TD*%
%TO.P,R2,2*%
%TO.N,Net-(J2-Pad1)*%
X143730900Y-94029300D03*
%TO.P,R2,1*%
%TO.N,GND*%
X141905900Y-94029300D03*
%TD*%
D10*
%TO.P,J1,1,Pin_1*%
%TO.N,Net-(J1-Pad1)*%
X146120400Y-92328900D03*
%TD*%
D11*
%TO.P,REF\u002A\u002A,1*%
%TO.N,N/C*%
X148076200Y-92273500D03*
%TD*%
D13*
%TO.P,R2,1*%
%TO.N,GND*%
X147851500Y-96418400D03*
%TO.P,R2,2*%
%TO.N,Net-(J2-Pad1)*%
X146026500Y-96418400D03*
%TD*%
%TO.P,R1,1*%
%TO.N,Net-(J1-Pad1)*%
X143685900Y-96418400D03*
%TO.P,R1,2*%
%TO.N,GND*%
X141860900Y-96418400D03*
%TD*%
D10*
%TO.P,J2,1,Pin_1*%
%TO.N,Net-(J2-Pad1)*%
X146634200Y-98118800D03*
%TD*%
%TO.P,J1,1,Pin_1*%
%TO.N,Net-(J1-Pad1)*%
X143637000Y-98118800D03*
%TD*%
D11*
%TO.P,REF\u002A\u002A,1*%
%TO.N,N/C*%
X148082000Y-98174200D03*
%TD*%
%TO.P,REF\u002A\u002A,1*%
%TO.N,N/C*%
X141681200Y-98174200D03*
%TD*%
D14*
%TO.N,Net-(J1-Pad1)*%
X146126400Y-93095500D02*
X146126400Y-94048700D01*
D15*
%TO.N,GND*%
X141905900Y-93521200D02*
X141676400Y-93291700D01*
D14*
X141676400Y-92087700D02*
X141676400Y-93291700D01*
X148076400Y-92087700D02*
X148076400Y-93165900D01*
D15*
%TO.N,Net-(J2-Pad1)*%
X143730900Y-93690800D02*
X143126400Y-93086300D01*
D14*
%TO.N,Net-(J1-Pad1)*%
X146126400Y-92087700D02*
X146126400Y-93095500D01*
%TO.N,Net-(J2-Pad1)*%
X143126400Y-92087700D02*
X143126400Y-93086300D01*
D15*
%TO.N,GND*%
X147896500Y-94029300D02*
X147896500Y-93345800D01*
%TO.N,Net-(J1-Pad1)*%
X145969900Y-94205200D02*
X146126400Y-94048700D01*
%TO.N,Net-(J2-Pad1)*%
X143730900Y-94029300D02*
X143730900Y-93690800D01*
%TO.N,GND*%
X147896500Y-93345800D02*
X148076400Y-93165900D01*
X141905900Y-94029300D02*
X141905900Y-93521200D01*
%TO.N,Net-(J1-Pad1)*%
X143787500Y-96242500D02*
X143631000Y-96399000D01*
D14*
X143631000Y-98360000D02*
X143631000Y-97352200D01*
X143631000Y-97352200D02*
X143631000Y-96399000D01*
D15*
%TO.N,Net-(J2-Pad1)*%
X146026500Y-96418400D02*
X146026500Y-96756900D01*
D14*
X146631000Y-98360000D02*
X146631000Y-97361400D01*
D15*
X146026500Y-96756900D02*
X146631000Y-97361400D01*
%TO.N,GND*%
X141860900Y-97101900D02*
X141681000Y-97281800D01*
X147851500Y-96418400D02*
X147851500Y-96926500D01*
D14*
X148081000Y-98360000D02*
X148081000Y-97156000D01*
D15*
X147851500Y-96926500D02*
X148081000Y-97156000D01*
D14*
X141681000Y-98360000D02*
X141681000Y-97281800D01*
D15*
X141860900Y-96418400D02*
X141860900Y-97101900D01*
%TD*%
M02*
